<?xml version="1.0" standalone="no"?>
<!DOCTYPE svg PUBLIC "-//W3C//DTD SVG 20010904//EN"
 "http://www.w3.org/TR/2001/REC-SVG-20010904/DTD/svg10.dtd">
<svg version="1.0" xmlns="http://www.w3.org/2000/svg"
 width="70.000000pt" height="70.000000pt" viewBox="0 0 70.000000 70.000000"
 preserveAspectRatio="xMidYMid meet">
<metadata>
Created by potrace 1.11, written by Peter Selinger 2001-2013
</metadata>
<g transform="translate(0.000000,70.000000) scale(0.100000,-0.100000)"
fill="#000000" stroke="none">
<path d="M0 350 l0 -350 350 0 350 0 0 350 0 350 -350 0 -350 0 0 -350z m347
253 c11 -10 27 -46 37 -81 28 -106 96 -266 134 -318 21 -27 59 -64 86 -81 39
-27 44 -33 26 -33 -37 0 -119 59 -140 100 -11 21 -24 40 -29 42 -6 1 -12 14
-15 28 -2 14 -5 26 -5 27 -1 1 -22 -4 -48 -12 -27 -8 -60 -15 -75 -15 -16 0
-27 -3 -26 -8 3 -9 -132 -145 -138 -139 -3 3 10 27 29 54 66 93 121 218 136
313 12 73 2 107 -34 116 -14 3 -25 10 -25 15 0 16 67 9 87 -8z m-177 -209 c25
-2 47 -3 50 -3 2 -1 -12 -12 -32 -26 -20 -14 -39 -34 -43 -45 -3 -11 -13 -20
-20 -20 -9 0 -12 6 -9 15 4 8 1 15 -6 15 -6 0 -8 5 -5 10 9 14 -44 33 -59 21
-7 -6 -16 -4 -24 5 -11 12 -9 14 10 16 13 0 29 1 36 1 10 -1 10 2 0 15 -12 14
-9 14 22 7 19 -5 55 -10 80 -11z m338 -39 c-3 -3 -9 2 -12 12 -6 14 -5 15 5 6
7 -7 10 -15 7 -18z m60 -14 c31 -21 92 -35 92 -21 0 6 6 10 14 10 9 0 12 -7 9
-21 -4 -15 -13 -20 -32 -18 -14 2 -43 -5 -63 -15 -40 -19 -67 -14 -48 9 9 10
6 16 -9 25 -12 6 -21 15 -21 21 0 6 7 6 19 -1 31 -16 38 -11 12 10 -30 25 -8
26 27 1z m-195 -282 c-5 -5 -8 3 -7 19 2 42 7 50 11 18 3 -16 1 -32 -4 -37z"/>
<path d="M352 437 c-1 -12 -11 -49 -22 -81 -11 -33 -18 -62 -15 -64 3 -3 23 0
45 7 22 6 46 9 52 5 8 -5 9 -2 3 12 -4 10 -17 47 -29 81 -22 67 -31 76 -34 40z"/>
</g>
</svg>
